
<svg width="61px" height="51px" viewBox="168 9 61 51" version="1.1" xmlns="http://www.w3.org/2000/svg" xmlns:xlink="http://www.w3.org/1999/xlink">
    <defs>
        <filter x="-50%" y="-50%" width="200%" height="200%" filterUnits="objectBoundingBox" id="filter-1">
            <feOffset dx="0" dy="2" in="SourceAlpha" result="shadowOffsetOuter1"></feOffset>
            <feGaussianBlur stdDeviation="2" in="shadowOffsetOuter1" result="shadowBlurOuter1"></feGaussianBlur>
            <feColorMatrix values="0 0 0 0 0   0 0 0 0 0   0 0 0 0 0  0 0 0 0.5 0" type="matrix" in="shadowBlurOuter1" result="shadowMatrixOuter1"></feColorMatrix>
            <feMerge>
                <feMergeNode in="shadowMatrixOuter1"></feMergeNode>
                <feMergeNode in="SourceGraphic"></feMergeNode>
            </feMerge>
        </filter>
    </defs>
    <g id="Icon" filter="url(#filter-1)" stroke="none" stroke-width="1" fill="none" fill-rule="evenodd" transform="translate(174.000000, 13.000000)" stroke-linecap="round">
        <path d="M25.97,15.818205 C25.01646,12.325755 21.71092,9.749805 17.77818,9.749805 C13.10162,9.749805 9.31,13.394355 9.31,17.89008 C9.31,20.537205 10.6232,22.88793 12.65768,24.374805" id="Stroke-112" stroke="#B8D8D8" stroke-width="4"></path>
        <path d="M41.870206,38.50353 C45.301186,38.35143 48.509706,36.010455 48.509706,32.440005 C48.509706,30.805905 47.870746,29.25663 46.963266,28.169505 C45.818626,26.523705 43.785126,25.36833 41.468406,25.36833 C41.266526,25.36833 41.066606,25.345905 40.869626,25.36248 C41.076406,24.59418 41.187146,23.77128 41.187146,22.93863 C41.187146,17.816955 37.025086,13.657605 31.891846,13.657605 C26.758606,13.657605 22.597526,17.805255 22.597526,22.92693 C22.597526,23.11998 22.603406,23.310105 22.615166,23.50023 C21.518546,23.064405 20.302366,22.820655 19.021506,22.820655 C14.198926,22.820655 10.289706,26.260455 10.289706,30.503655 C10.289706,34.48263 12.489806,38.10183 16.741046,38.475255 L41.870206,38.50353 L41.870206,38.50353 Z" id="Stroke-114" stroke="#B8D8D8" stroke-width="4"></path>
        <path d="M16.66,3.9 L16.66,0" id="Stroke-116" stroke="#B8D8D8" stroke-width="4"></path>
        <path d="M3.92,18.525 L0,18.525" id="Stroke-118" stroke="#B8D8D8" stroke-width="4"></path>
        <path d="M27.867574,7.8621075 L30.932034,4.8132825" id="Stroke-120" stroke="#B8D8D8" stroke-width="4"></path>
        <path d="M7.412426,7.8621075 L4.347966,4.8132825" id="Stroke-122" stroke="#B8D8D8" stroke-width="4"></path>
    </g>
</svg>