
<svg width="327px" height="199px" viewBox="135 522 327 199" version="1.1" xmlns="http://www.w3.org/2000/svg" xmlns:xlink="http://www.w3.org/1999/xlink">
    <!-- Generator: Sketch 42 (36781) - http://www.bohemiancoding.com/sketch -->
    <desc>Created with Sketch.</desc>
    <defs>
        <ellipse id="path-1" cx="233.183445" cy="20.0630682" rx="9.82606036" ry="9.88099279"></ellipse>
        <mask id="mask-2" maskContentUnits="userSpaceOnUse" maskUnits="objectBoundingBox" x="0" y="0" width="19.6521207" height="19.7619856" fill="white">
            <use xlink:href="#path-1"></use>
        </mask>
        <ellipse id="path-3" cx="232.931006" cy="41.0851557" rx="10.0775214" ry="10.1338596"></ellipse>
        <mask id="mask-4" maskContentUnits="userSpaceOnUse" maskUnits="objectBoundingBox" x="0" y="0" width="20.1550427" height="20.2677192" fill="white">
            <use xlink:href="#path-3"></use>
        </mask>
        <ellipse id="path-5" cx="233.434906" cy="62.8675091" rx="10.0775214" ry="10.1338596"></ellipse>
        <mask id="mask-6" maskContentUnits="userSpaceOnUse" maskUnits="objectBoundingBox" x="0" y="0" width="20.1550427" height="20.2677192" fill="white">
            <use xlink:href="#path-5"></use>
        </mask>
    </defs>
    <g id="DIAGRAM" stroke="none" stroke-width="1" fill="none" fill-rule="evenodd" transform="translate(135.000000, 522.000000)">
        <path d="M233.577321,20.3134026 C187.301706,20.3134026 149.787907,58.0369212 149.787907,104.57124 C149.787907,151.105558 187.301706,188.829077 233.577321,188.829077 C279.852936,188.829077 317.366735,151.105558 317.366735,104.57124" id="Oval-138" stroke="#FE5F55" stroke-width="19" stroke-linecap="round" transform="translate(233.577321, 104.571240) scale(-1, 1) translate(-233.577321, -104.571240) "></path>
        <path d="M295.919061,41.0826233 C261.131989,41.0826233 232.931495,69.3189101 232.931495,104.150135 C232.931495,138.98136 261.131989,167.217647 295.919061,167.217647" id="Oval-138-Copy" stroke="#17AFFF" stroke-width="19" stroke-linecap="round" transform="translate(264.425278, 104.150135) scale(-1, 1) translate(-264.425278, -104.150135) "></path>
        <path d="M274.783013,62.8649767 C251.380773,62.8649767 233.435396,81.8648259 233.435396,105.397895" id="Oval-138-Copy-2" stroke="#FFF913" stroke-width="19" stroke-linecap="round" transform="translate(254.109204, 84.131436) scale(-1, 1) translate(-254.109204, -84.131436) "></path>
        <text id="Food-Eaten:-75%" font-family=".SFNSDisplay, .SF NS Display" font-size="20" font-weight="normal" line-spacing="32" fill="#F6655C">
            <tspan x="65.4180176" y="19.7597136">Food Eaten: 75%</tspan>
        </text>
        <text id="Steps-Today:-50%" font-family=".SFNSDisplay, .SF NS Display" font-size="20" font-weight="normal" line-spacing="32" fill="#00B7FB">
            <tspan x="52.6543457" y="43.0355006">Steps Today: 50%</tspan>
        </text>
        <text id="Buttz-Sniffed:-25%" font-family=".SFNSDisplay, .SF NS Display" font-size="20" font-weight="normal" line-spacing="32" fill="#FFF913">
            <tspan x="51.0644162" y="67">Buttz Sniffed: 25%</tspan>
        </text>
        <use id="Oval-141" stroke="#FFFFFF" mask="url(#mask-2)" stroke-width="9.6" fill="#FE5F55" xlink:href="#path-1"></use>
        <use id="Oval-141-Copy" stroke="#FFFFFF" mask="url(#mask-4)" stroke-width="9.6" fill="#18AFFF" xlink:href="#path-3"></use>
        <use id="Oval-141-Copy-2" stroke="#FFFFFF" mask="url(#mask-6)" stroke-width="9.6" fill="#FFDA15" xlink:href="#path-5"></use>
    </g>
</svg>